<svg width="230" height="37" viewBox="0 0 230 37" fill="none" xmlns="http://www.w3.org/2000/svg">
<g clip-path="url(#clip0_1_185)">
<path d="M18.446 36.8918C28.6334 36.8918 36.892 28.6332 36.892 18.4458C36.892 8.25831 28.6334 -0.000244141 18.446 -0.000244141C8.25856 -0.000244141 0 8.25831 0 18.4458C0 28.6332 8.25856 36.8918 18.446 36.8918Z" fill="#F82514"/>
<path d="M18.4413 6.32271C13.6615 6.32271 9.85605 10.0613 9.77241 14.8327C9.72641 17.4003 10.546 19.4913 12.34 21.4149C12.3944 21.4693 12.4613 21.5362 12.499 21.624C12.5366 21.7076 12.5366 21.8163 12.5366 21.8665V23.6145C12.5366 24.2753 13.0719 24.8063 13.7284 24.8063C14.385 24.8063 14.9202 24.2711 14.9202 23.6145V21.8665C14.9202 21.5069 14.87 21.072 14.7404 20.7416C14.5982 20.3903 14.2888 20.014 14.0839 19.7882C12.6997 18.3036 12.1226 16.8358 12.156 14.8745C12.2062 11.8845 14.4268 8.71053 18.4455 8.71053C22.4642 8.71053 24.6764 11.8887 24.7266 14.8745C24.76 16.8358 24.183 18.3036 22.7988 19.7882C22.5897 20.0098 22.2844 20.3862 22.1422 20.7374C22.0084 21.0678 21.9582 21.4734 21.9582 21.8665V23.6145C21.9582 24.2753 22.4935 24.8063 23.15 24.8063C23.8066 24.8063 24.3419 24.2711 24.3419 23.6145V21.8707C24.3419 21.8163 24.3419 21.716 24.367 21.6616C24.4046 21.5738 24.4882 21.4734 24.5384 21.4191C26.3366 19.4954 27.152 17.4003 27.1102 14.8369C27.0308 10.0654 23.2211 6.32689 18.4371 6.32689L18.4413 6.32271Z" fill="white"/>
<path d="M21.5236 25.7138L15.1714 27.3405C14.7407 27.4492 14.4814 27.8925 14.5901 28.3232C14.703 28.7623 15.1463 29.0216 15.577 28.9128L21.925 27.2903C22.3557 27.1816 22.6192 26.7383 22.5063 26.3034C22.3976 25.8727 21.9543 25.6092 21.5236 25.7179V25.7138Z" fill="white"/>
<path d="M15.5727 26.571L19.0729 25.6761C19.5036 25.5673 19.767 25.1241 19.6541 24.6892C19.5454 24.2543 19.1063 23.995 18.6756 24.1037L15.1712 24.9986C14.7405 25.1115 14.4812 25.5506 14.59 25.9855C14.7029 26.4204 15.1461 26.6839 15.5769 26.571H15.5727Z" fill="white"/>
<path d="M20.2314 28.3984L16.7354 29.2891C16.3005 29.4062 16.0371 29.8453 16.1416 30.2802C16.2545 30.7151 16.6936 30.9786 17.1327 30.8657L20.6329 29.9707C21.0636 29.8662 21.3271 29.4187 21.2184 28.9838C21.1096 28.5531 20.6705 28.2897 20.2356 28.4026L20.2314 28.3984Z" fill="white"/>
<path d="M175.06 8.61026H193.845V16.7523C193.845 16.8986 193.962 17.0157 194.108 17.0157H198.478C198.625 17.0157 198.742 16.8986 198.742 16.7523V4.47026C198.742 4.3239 198.625 4.20681 198.478 4.20681H175.06C174.914 4.20681 174.797 4.3239 174.797 4.47026V8.3468C174.797 8.49317 174.914 8.61026 175.06 8.61026Z" fill="#282828"/>
<path d="M200.097 19.8551H173.442C173.295 19.8551 173.178 19.9722 173.178 20.1186V23.8571C173.178 24.0035 173.295 24.1206 173.442 24.1206H184.319V32.4215C184.319 32.5679 184.436 32.685 184.582 32.685H188.952C189.099 32.685 189.216 32.5679 189.216 32.4215V24.1206H200.093C200.239 24.1206 200.356 24.0035 200.356 23.8571V20.1186C200.356 19.9722 200.239 19.8551 200.093 19.8551H200.097Z" fill="#282828"/>
<path d="M218.86 28.2395V20.1184C218.86 19.9721 218.743 19.855 218.596 19.855H214.226C214.08 19.855 213.963 19.9721 213.963 20.1184V28.2395H203.09C202.944 28.2395 202.827 28.3566 202.827 28.503V32.4213C202.827 32.5677 202.944 32.6848 203.09 32.6848H229.741C229.887 32.6848 230.004 32.5677 230.004 32.4213V28.503C230.004 28.3566 229.887 28.2395 229.741 28.2395H218.86Z" fill="#282828"/>
<path d="M206.708 21.628C206.565 21.7995 206.306 21.8204 206.139 21.674L203.107 18.868C202.94 18.7258 202.919 18.4791 203.057 18.3077L213.867 6.32675C213.955 6.21385 213.955 6.15948 213.955 6.03821V3.70475C213.955 3.55839 214.076 3.4413 214.222 3.4413H218.592C218.739 3.4413 218.856 3.55839 218.856 3.70475V6.03821C218.856 6.16366 218.86 6.21803 218.948 6.32675L229.758 18.3118C229.896 18.4791 229.875 18.73 229.708 18.8722L226.667 21.6866C226.496 21.8329 226.241 21.812 226.099 21.6406L216.405 10.8808L206.703 21.6322L206.708 21.628Z" fill="#282828"/>
<path d="M169.406 3.42888H165.031C164.885 3.42888 164.768 3.54597 164.768 3.69233V6.32269H162.439C162.292 6.32269 162.175 6.43978 162.175 6.58615V10.676C162.175 10.8223 162.292 10.9394 162.439 10.9394H164.768V15.23H162.439C162.292 15.23 162.175 15.3471 162.175 15.4934V19.5874C162.175 19.7338 162.292 19.8509 162.439 19.8509H164.768V24.4885C164.768 24.6349 164.885 24.752 165.031 24.752H169.406C169.552 24.752 169.669 24.6349 169.669 24.4885V3.69233C169.669 3.54597 169.552 3.42888 169.406 3.42888Z" fill="#282828"/>
<path d="M169.406 28.7162H150.859C150.328 28.7162 149.898 28.2855 149.898 27.7544V24.1957C149.898 24.0493 149.781 23.9322 149.634 23.9322H145.264C145.118 23.9322 145.001 24.0493 145.001 24.1957V28.6535C145.001 30.8824 146.807 32.689 149.036 32.689H169.406C169.552 32.689 169.669 32.5719 169.669 32.4255V28.9839C169.669 28.8375 169.552 28.7204 169.406 28.7204V28.7162Z" fill="#282828"/>
<path d="M151.077 21.2685C155.936 21.2685 159.88 17.2749 159.88 12.3487C159.88 7.42251 155.94 3.42888 151.077 3.42888C146.213 3.42888 142.27 7.42251 142.27 12.3487C142.27 17.2749 146.209 21.2685 151.077 21.2685ZM151.135 8.27978C153.381 8.27978 155.2 10.1281 155.2 12.3989C155.2 14.6696 153.381 16.518 151.135 16.518C148.89 16.518 147.066 14.6738 147.066 12.3989C147.066 10.124 148.89 8.27978 151.135 8.27978Z" fill="#282828"/>
<path d="M123.359 9.10372C123.602 9.10372 123.761 8.92808 123.761 8.70226V4.47026C123.761 4.3239 123.644 4.20681 123.497 4.20681H112.14C111.993 4.20681 111.876 4.3239 111.876 4.47026V27.5163C111.876 28.2104 112.014 28.8795 112.282 29.5152C112.541 30.1341 112.917 30.6903 113.39 31.167C113.858 31.6437 114.419 32.0201 115.033 32.2794C115.665 32.5512 116.346 32.6892 117.041 32.6892H123.493C123.64 32.6892 123.757 32.5721 123.757 32.4257V28.0348C123.757 27.8884 123.64 27.7714 123.493 27.7714H117.948C117.296 27.7463 116.769 27.2026 116.769 26.5377V9.10372H123.359Z" fill="#F82514"/>
<path d="M138.498 4.47026C138.498 4.3239 138.381 4.20681 138.234 4.20681H134.22C134.074 4.20681 133.956 4.3239 133.956 4.47026V15.9954H130.795V4.47026C130.795 4.3239 130.678 4.20681 130.532 4.20681H126.521C126.375 4.20681 126.258 4.3239 126.258 4.47026V32.4215C126.258 32.5679 126.375 32.685 126.521 32.685H130.532C130.678 32.685 130.795 32.5679 130.795 32.4215V20.8923H133.956V32.4215C133.956 32.5679 134.074 32.685 134.22 32.685H138.234C138.381 32.685 138.498 32.5679 138.498 32.4215V4.47026Z" fill="#F82514"/>
<path d="M107.732 11.9097C107.732 7.22609 103.935 3.43319 99.2555 3.43319C94.576 3.43319 90.7748 7.22609 90.7748 11.9097V24.7939C90.7748 24.9361 90.8919 25.0574 91.0424 25.0574H95.8139C95.9602 25.0574 96.0773 24.9361 96.0773 24.7939V11.9097C96.0773 10.1534 97.5033 8.73155 99.2597 8.73155C101.016 8.73155 102.438 10.1534 102.438 11.9097V24.6141C102.438 26.3663 101.016 27.7881 99.2638 27.7881H79.0239C78.9569 27.7881 78.8984 27.7379 78.8942 27.6835C78.89 27.6375 78.8984 27.6041 78.9319 27.5623L86.8857 17.0994C89.7544 13.3985 89.0769 8.07082 85.3718 5.20628C81.6709 2.33755 76.3433 3.015 73.4788 6.72009C70.6142 10.4252 71.2917 15.7486 74.9926 18.6132C75.0637 18.6717 75.3146 18.8265 75.3689 18.8265C75.4526 18.8265 75.5279 18.7888 75.578 18.7261L78.4969 14.9583C78.5346 14.9123 78.5597 14.8537 78.5597 14.791C78.5597 14.7032 78.5137 14.6195 78.4468 14.5735C78.4468 14.5735 78.3088 14.4815 78.2419 14.4272C76.8535 13.3525 76.5984 11.3577 77.6731 9.96937C78.7479 8.581 80.7468 8.32591 82.1351 9.40482C83.5235 10.4795 83.7786 12.4743 82.7039 13.8626L72.2995 27.6292C72.266 27.6752 72.2451 27.7337 72.2451 27.7965V32.4257C72.2451 32.5763 72.3622 32.6934 72.5128 32.6934H100.899C104.683 32.6934 107.753 29.6239 107.753 25.8394V11.9097H107.732Z" fill="#F82514"/>
<path d="M47.2383 4.20692H42.3456V6.22256H47.2383V4.20692Z" fill="#282828"/>
<path d="M47.238 15.2594H44.8502C44.5826 15.2469 44.3651 15.0378 44.3651 14.7743V7.1927H42.3495C42.3495 7.1927 42.3495 15.4811 42.3495 15.5103C42.3955 16.4805 43.1984 17.2583 44.1811 17.2583H47.238V15.2594Z" fill="#282828"/>
<path d="M51.5745 9.40908H50.2321V4.21108H48.2165V17.2584H50.2321V11.4247H51.5745V17.2584H53.5901V4.21108H51.5745V9.40908Z" fill="#282828"/>
<path d="M47.2875 32.5846V30.5899H44.8997C44.6321 30.5774 44.4146 30.3683 44.4146 30.1048V19.5374H42.399V30.8408C42.445 31.811 43.2479 32.5888 44.2348 32.5888H47.2917L47.2875 32.5846Z" fill="#282828"/>
<path d="M51.6203 24.7355H50.278V19.5375H48.2623V32.5889H50.278V26.7553H51.6203V32.5889H53.636V19.5375H51.6203V24.7355Z" fill="#282828"/>
<path d="M59.3777 26.1196C61.2219 26.1196 62.719 24.6476 62.719 22.8327C62.719 21.0178 61.2219 19.5458 59.3777 19.5458C57.5335 19.5458 56.0364 21.0178 56.0364 22.8327C56.0364 24.6476 57.5335 26.1196 59.3777 26.1196ZM59.4028 21.4987C60.1597 21.4987 60.7744 22.1051 60.7744 22.8494C60.7744 23.5938 60.1597 24.2002 59.4028 24.2002C58.6459 24.2002 58.027 23.5938 58.027 22.8494C58.027 22.1051 58.6417 21.4987 59.4028 21.4987Z" fill="#282828"/>
<path d="M56.647 28.2063H64.7807V28.9172H56.647V30.753C56.647 31.7692 57.4708 32.5888 58.4828 32.5888H66.7043V31.1085H59.1561C58.7881 31.1085 58.5498 30.937 58.5498 30.6903C58.5498 30.5816 58.5498 30.4519 58.5498 30.3934H66.7043V26.7301H56.647V28.2063Z" fill="#282828"/>
<path d="M66.7044 19.5375H64.6636V25.7809H66.7044V19.5375Z" fill="#282828"/>
<path d="M66.6661 4.21108H64.6253V12.2945H66.6661V9.41326H67.7324V7.17599H66.6661V4.21108Z" fill="#282828"/>
<path d="M59.4655 12.6457C61.4811 12.6457 63.1162 11.0106 63.1162 8.99496C63.1162 8.33424 62.9406 7.71115 62.6311 7.17587H63.6306V5.14769H60.5527V4.20678H58.374V5.14769H55.2962V7.17587H56.2956C55.9904 7.71115 55.8106 8.33005 55.8106 8.99496C55.8106 11.0106 57.4457 12.6457 59.4613 12.6457M59.4655 7.3766C60.3687 7.3766 61.1047 8.10842 61.1047 9.01587C61.1047 9.92333 60.3729 10.6551 59.4655 10.6551C58.558 10.6551 57.8262 9.92333 57.8262 9.01587C57.8262 8.10842 58.558 7.3766 59.4655 7.3766Z" fill="#282828"/>
<path d="M55.8229 13.2563V15.2427H64.6256V17.2625H66.6663V13.2605L66.6454 13.2563H55.8229Z" fill="#282828"/>
</g>
<defs>
<clipPath id="clip0_1_185">
<rect width="230" height="36.892" fill="white"/>
</clipPath>
</defs>
</svg>
