<svg width="500" height="500" viewBox="0 0 500 500" fill="none" xmlns="http://www.w3.org/2000/svg">
<rect width="500" height="500" rx="50" fill="#FC5B4F"/>
<path d="M123.462 215.897C117.484 215.897 114.495 212.906 114.495 206.923V118.974C114.495 112.991 117.484 110 123.462 110H236.152C241.533 110 244.223 112.692 244.223 118.077V145C244.223 150.385 241.533 153.077 236.152 153.077H179.359V172.821H236.75C242.429 172.821 245.418 175.513 245.418 181.197V206.923C245.418 212.906 242.429 215.897 236.75 215.897H123.462ZM262.755 215.897C256.777 216.197 253.788 212.906 253.788 206.923V118.974C253.788 112.991 256.777 110 262.755 110H377.837C383.217 110 385.908 112.692 385.908 118.077V145C385.908 150.385 383.217 153.077 377.837 153.077H318.652V172.821H378.734C384.413 172.821 387.402 175.513 387.402 181.197V206.923C387.402 212.906 384.114 215.897 378.734 215.897H262.755ZM379.033 231.154C385.011 231.154 388 234.145 388 240.128V272.436C388 278.419 385.011 281.41 379.033 281.41H286.071V296.966H376.043C382.022 296.966 385.011 299.957 385.011 305.94V381.026C385.011 387.009 382.022 390 376.043 390H314.168C308.19 390 305.201 387.009 305.201 381.026V346.624H124.957C118.978 346.624 115.989 343.632 115.989 337.65V305.94C115.989 299.957 118.978 296.966 124.957 296.966H214.929V281.41H121.967C115.989 281.41 113 278.419 113 272.436V240.128C113 234.145 115.989 231.154 121.967 231.154H379.033Z" fill="white"/>
</svg>
